<svg width="40" height="36" viewBox="0 0 40 36" fill="none" xmlns="http://www.w3.org/2000/svg">
<path d="M37.5 5.57433L37.5 30.1014C37.5 31.9486 35.8211 33.446 33.75 33.446H6.25C4.17891 33.446 2.5 31.9486 2.5 30.1014L2.5 5.57433C2.5 3.72714 4.17891 2.22974 6.25 2.22974L33.75 2.22974C35.8211 2.22974 37.5 3.72714 37.5 5.57433ZM9.72539 15.3632L19.3371 23.9358C19.7032 24.2623 20.2968 24.2623 20.663 23.9358L30.2746 15.3632C30.8652 14.8364 30.447 13.9358 29.6117 13.9358L10.3884 13.9358C9.55313 13.9358 9.13484 14.8365 9.72539 15.3632Z" fill="black"/>
</svg>
