<svg width="24" height="24" viewBox="0 0 24 24" fill="none" xmlns="http://www.w3.org/2000/svg">
<path d="M13.439 0.440065L7.87854 6.00004H1.49996C0.671233 6.00004 0 6.67129 0 7.50004V16.5C0 17.3281 0.671233 18 1.49996 18H7.87854L13.439 23.5593C14.3784 24.4987 15.9996 23.8387 15.9996 22.4987V1.50131C15.9996 0.159441 14.3771 -0.497431 13.439 0.440065ZM21.1388 7.19504C20.4151 6.79941 19.502 7.06004 19.1008 7.78566C18.7014 8.51128 18.9658 9.42315 19.6914 9.82378C20.4982 10.2675 20.9995 11.1013 20.9995 12C20.9995 12.8988 20.4982 13.7325 19.692 14.1756C18.9664 14.5763 18.702 15.4881 19.1014 16.2138C19.5032 16.9425 20.417 17.2012 21.1394 16.8044C22.9038 15.8325 24 13.9919 24 11.9994C24 10.0069 22.9038 8.16691 21.1388 7.19504Z" fill="black"/>
</svg>
